<?xml version="1.0" encoding="utf-8"?>
<svg version="1.1" xmlns="http://www.w3.org/2000/svg" xmlns:xlink="http://www.w3.org/1999/xlink" x="0px" y="0px"
	 viewBox="0 0 24 24" style="enable-background:new 0 0 24 24;" fill="currenColor" xml:space="preserve">
<g>
	<path class="st0" d="M10,21.5H5c-0.8,0-1.5-0.7-1.5-1.5V4c0-0.8,0.7-1.5,1.5-1.5h5c0.3,0,0.5-0.2,0.5-0.5S10.3,1.5,10,1.5H5
		C3.6,1.5,2.5,2.6,2.5,4v16c0,1.4,1.1,2.5,2.5,2.5h5c0.3,0,0.5-0.2,0.5-0.5S10.3,21.5,10,21.5z"/>
	<path class="st0" d="M21.5,12.2c0.1-0.1,0.1-0.3,0-0.4c0-0.1-0.1-0.1-0.1-0.2l-4-4c-0.2-0.2-0.5-0.2-0.7,0s-0.2,0.5,0,0.7l3.1,3.1
		H9c-0.3,0-0.5,0.2-0.5,0.5s0.2,0.5,0.5,0.5h10.8l-3.1,3.1c-0.2,0.2-0.2,0.5,0,0.7c0.1,0.1,0.2,0.1,0.4,0.1s0.3,0,0.4-0.1l4-4
		C21.4,12.3,21.4,12.3,21.5,12.2z"/>
</g>
</svg>
